<svg width="22" height="12" viewBox="0 0 22 12" fill="none" xmlns="http://www.w3.org/2000/svg">
<path d="M0.804335 7.9918L4.35223 11.7181C4.43745 11.8074 4.53885 11.8783 4.65056 11.9267C4.76228 11.9751 4.88211 12 5.00313 12C5.12415 12 5.24398 11.9751 5.3557 11.9267C5.46741 11.8783 5.56881 11.8074 5.65404 11.7181C5.73996 11.6295 5.80816 11.5241 5.85471 11.408C5.90125 11.2918 5.92521 11.1673 5.92521 11.0415C5.92521 10.9156 5.90125 10.7911 5.85471 10.6749C5.80816 10.5588 5.73996 10.4534 5.65404 10.3648L2.39034 6.95302H21.0832C21.3264 6.95302 21.5596 6.85261 21.7315 6.67388C21.9034 6.49516 22 6.25276 22 6C22 5.74724 21.9034 5.50484 21.7315 5.32612C21.5596 5.14739 21.3264 5.04698 21.0832 5.04698H2.33534L5.65404 1.59706C5.81657 1.41982 5.90724 1.18435 5.90724 0.939482C5.90724 0.694613 5.81657 0.459139 5.65404 0.281901C5.56881 0.192576 5.46741 0.121677 5.3557 0.0732933C5.24398 0.0249099 5.12415 0 5.00313 0C4.88211 0 4.76228 0.0249099 4.65056 0.0732933C4.53885 0.121677 4.43745 0.192576 4.35223 0.281901L0.804335 3.95101C0.289294 4.48709 0 5.21376 0 5.97141C0 6.72906 0.289294 7.45573 0.804335 7.9918Z" fill="#5D5E7C"/>
</svg>
