<svg width="19" height="20" viewBox="0 0 19 20" fill="none" xmlns="http://www.w3.org/2000/svg">
<g clip-path="url(#clip0_15_48)">
<path d="M0.791667 3.95834H2.95767C3.12759 4.61644 3.49851 5.19741 4.01322 5.61161C4.52792 6.02581 5.1578 6.25022 5.80569 6.25022C6.45357 6.25022 7.08345 6.02581 7.59816 5.61161C8.11286 5.19741 8.48379 4.61644 8.65371 3.95834H18.2083C18.4183 3.95834 18.6197 3.87054 18.7681 3.71426C18.9166 3.55798 19 3.34602 19 3.125C19 2.90399 18.9166 2.69203 18.7681 2.53575C18.6197 2.37947 18.4183 2.29167 18.2083 2.29167H8.65371C8.48379 1.63356 8.11286 1.05259 7.59816 0.638393C7.08345 0.224196 6.45357 -0.000213623 5.80569 -0.000213623C5.1578 -0.000213623 4.52792 0.224196 4.01322 0.638393C3.49851 1.05259 3.12759 1.63356 2.95767 2.29167H0.791667C0.581703 2.29167 0.38034 2.37947 0.231874 2.53575C0.0834075 2.69203 0 2.90399 0 3.125C0 3.34602 0.0834075 3.55798 0.231874 3.71426C0.38034 3.87054 0.581703 3.95834 0.791667 3.95834ZM5.80529 1.66667C6.0793 1.66667 6.34716 1.7522 6.57499 1.91244C6.80282 2.07269 6.98039 2.30045 7.08525 2.56692C7.19011 2.8334 7.21754 3.12662 7.16409 3.40951C7.11063 3.6924 6.97868 3.95225 6.78493 4.1562C6.59117 4.36015 6.34432 4.49904 6.07557 4.55531C5.80683 4.61158 5.52827 4.5827 5.27511 4.47233C5.02196 4.36195 4.80559 4.17503 4.65336 3.93521C4.50113 3.69539 4.41987 3.41343 4.41987 3.125C4.42029 2.73836 4.56639 2.36769 4.82612 2.09429C5.08584 1.8209 5.43798 1.66711 5.80529 1.66667Z" fill="white"/>
<path d="M18.2083 9.16667H16.0423C15.8727 8.50841 15.5019 7.92723 14.9873 7.51286C14.4726 7.09849 13.8427 6.87398 13.1947 6.87398C12.5468 6.87398 11.9168 7.09849 11.4022 7.51286C10.8875 7.92723 10.5167 8.50841 10.3471 9.16667H0.791667C0.581703 9.16667 0.38034 9.25447 0.231874 9.41075C0.0834075 9.56703 0 9.77899 0 10C0 10.221 0.0834075 10.433 0.231874 10.5893C0.38034 10.7455 0.581703 10.8333 0.791667 10.8333H10.3471C10.5167 11.4916 10.8875 12.0728 11.4022 12.4872C11.9168 12.9015 12.5468 13.126 13.1947 13.126C13.8427 13.126 14.4726 12.9015 14.9873 12.4872C15.5019 12.0728 15.8727 11.4916 16.0423 10.8333H18.2083C18.4183 10.8333 18.6197 10.7455 18.7681 10.5893C18.9166 10.433 19 10.221 19 10C19 9.77899 18.9166 9.56703 18.7681 9.41075C18.6197 9.25447 18.4183 9.16667 18.2083 9.16667ZM13.1947 11.4583C12.9207 11.4583 12.6528 11.3728 12.425 11.2126C12.1972 11.0523 12.0196 10.8246 11.9147 10.5581C11.8099 10.2916 11.7825 9.99839 11.8359 9.7155C11.8894 9.43261 12.0213 9.17276 12.2151 8.96881C12.4088 8.76486 12.6557 8.62596 12.9244 8.56969C13.1932 8.51342 13.4717 8.5423 13.7249 8.65268C13.978 8.76306 14.1944 8.94998 14.3466 9.1898C14.4989 9.42962 14.5801 9.71158 14.5801 10C14.5797 10.3866 14.4336 10.7573 14.1739 11.0307C13.9142 11.3041 13.562 11.4579 13.1947 11.4583Z" fill="white"/>
<path d="M18.2083 16.0417H8.65371C8.48379 15.3836 8.11286 14.8026 7.59816 14.3884C7.08345 13.9742 6.45357 13.7498 5.80569 13.7498C5.1578 13.7498 4.52792 13.9742 4.01322 14.3884C3.49851 14.8026 3.12759 15.3836 2.95767 16.0417H0.791667C0.581703 16.0417 0.38034 16.1295 0.231874 16.2857C0.0834075 16.442 0 16.654 0 16.875C0 17.096 0.0834075 17.308 0.231874 17.4643C0.38034 17.6205 0.581703 17.7083 0.791667 17.7083H2.95767C3.12759 18.3664 3.49851 18.9474 4.01322 19.3616C4.52792 19.7758 5.1578 20.0002 5.80569 20.0002C6.45357 20.0002 7.08345 19.7758 7.59816 19.3616C8.11286 18.9474 8.48379 18.3664 8.65371 17.7083H18.2083C18.4183 17.7083 18.6197 17.6205 18.7681 17.4643C18.9166 17.308 19 17.096 19 16.875C19 16.654 18.9166 16.442 18.7681 16.2857C18.6197 16.1295 18.4183 16.0417 18.2083 16.0417ZM5.80529 18.3333C5.53128 18.3333 5.26342 18.2478 5.03559 18.0876C4.80776 17.9273 4.63019 17.6996 4.52533 17.4331C4.42047 17.1666 4.39304 16.8734 4.44649 16.5905C4.49995 16.3076 4.6319 16.0478 4.82565 15.8438C5.01941 15.6399 5.26626 15.501 5.53501 15.4447C5.80375 15.3884 6.08231 15.4173 6.33547 15.5277C6.58862 15.6381 6.80499 15.825 6.95722 16.0648C7.10945 16.3046 7.19071 16.5866 7.19071 16.875C7.19008 17.2616 7.04391 17.6321 6.78423 17.9055C6.52455 18.1788 6.17253 18.3327 5.80529 18.3333Z" fill="white"/>
</g>
<defs>
<clipPath id="clip0_15_48">
<rect width="19" height="20" fill="white"/>
</clipPath>
</defs>
</svg>
