<svg width="22" height="19" viewBox="0 0 22 19" fill="none" xmlns="http://www.w3.org/2000/svg">
<path d="M16.0396 0C15.0078 0.0157747 13.9985 0.298881 13.1137 0.82073C12.2288 1.34258 11.4997 2.08469 11 2.97212C10.5003 2.08469 9.77118 1.34258 8.88632 0.82073C8.00146 0.298881 6.99216 0.0157747 5.96037 0C4.31556 0.0702418 2.76589 0.777484 1.64991 1.96721C0.533927 3.15695 -0.0576437 4.73245 0.00443589 6.34954C0.00443589 10.4448 4.38983 14.9174 8.06785 17.9498C8.88905 18.6281 9.92734 19 11 19C12.0727 19 13.1109 18.6281 13.9322 17.9498C17.6102 14.9174 21.9956 10.4448 21.9956 6.34954C22.0576 4.73245 21.4661 3.15695 20.3501 1.96721C19.2341 0.777484 17.6844 0.0702418 16.0396 0ZM12.7547 16.5718C12.2636 16.9784 11.6421 17.2013 11 17.2013C10.3579 17.2013 9.73644 16.9784 9.24529 16.5718C4.53736 12.6892 1.83703 8.96411 1.83703 6.34954C1.77439 5.20997 2.17273 4.09228 2.94517 3.24025C3.7176 2.38821 4.80147 1.87095 5.96037 1.80129C7.11927 1.87095 8.20313 2.38821 8.97557 3.24025C9.748 4.09228 10.1463 5.20997 10.0837 6.34954C10.0837 6.5884 10.1802 6.81749 10.3521 6.98639C10.5239 7.15529 10.757 7.25018 11 7.25018C11.243 7.25018 11.4761 7.15529 11.6479 6.98639C11.8198 6.81749 11.9163 6.5884 11.9163 6.34954C11.8537 5.20997 12.252 4.09228 13.0244 3.24025C13.7969 2.38821 14.8807 1.87095 16.0396 1.80129C17.1985 1.87095 18.2824 2.38821 19.0548 3.24025C19.8273 4.09228 20.2256 5.20997 20.163 6.34954C20.163 8.96411 17.4626 12.6892 12.7547 16.5682V16.5718Z" fill="#5D5E7C"/>
</svg>
