<svg width="70" height="81" viewBox="0 0 70 81" fill="none" xmlns="http://www.w3.org/2000/svg">
<path fill-rule="evenodd" clip-rule="evenodd" d="M49.0624 57.8343C46.095 63.7585 41.1347 66.6058 34.5244 66.5354C34.294 66.5354 34.0636 66.5378 33.8331 66.5402C33.2895 66.5459 32.746 66.5515 32.205 66.5257C31.7257 66.5031 31.7647 66.6856 31.9419 66.9868C32.0792 67.2202 32.2196 67.4519 32.3654 67.68C34.1067 70.4087 36.2324 72.8113 38.6377 74.9623C40.7786 76.8773 43.0496 78.6124 45.7048 79.7893C46.3099 80.0573 46.8463 80.1087 47.4797 79.8868C49.6418 79.1293 51.7145 78.1893 53.6856 77.0212C66.7083 69.3044 72.8243 53.8693 68.4673 39.3042C64.3925 25.6836 52.0112 16.2453 37.8151 15.8759L37.8113 15.8758C36.0468 15.8298 36.0204 15.8291 36.8455 14.2861C39.0479 10.167 40.7892 5.88087 41.672 1.27405C41.6948 1.15463 41.7184 1.03535 41.7419 0.916073C41.7783 0.731833 41.8147 0.547599 41.8483 0.362875C41.8497 0.355536 41.8511 0.348049 41.8525 0.340464C41.8717 0.239995 41.8942 0.122275 41.7456 0.103741C41.6924 0.097097 41.6162 0.172843 41.5706 0.227771C41.419 0.410863 41.2732 0.598391 41.1272 0.786162C41.1068 0.812358 41.0864 0.838558 41.0661 0.864752C37.5348 5.4007 33.6035 9.55304 29.2465 13.3076C23.9597 17.8635 18.3358 21.9759 12.6437 25.9985C11.9253 26.5066 11.3888 27.0966 10.98 27.8736C7.66129 34.1778 4.21504 40.4099 0.371 46.4138C0.348075 46.4497 0.324763 46.4855 0.301438 46.5212C0.218852 46.6479 0.136103 46.7748 0.0697843 46.9095C0.0215013 47.0065 -0.0236807 47.1473 0.0139712 47.2302C0.040106 47.2887 0.211533 47.3104 0.312528 47.2993C0.464804 47.2824 0.614835 47.245 0.764631 47.2076C0.803079 47.1981 0.841512 47.1885 0.879964 47.1792C2.38623 46.8183 3.89354 46.4613 5.40086 46.1042C8.82541 45.293 12.2501 44.4818 15.663 43.6249C22.719 41.8535 29.7771 40.0932 36.95 38.8573C38.2027 38.6411 38.9859 38.0422 39.5206 36.9676C39.9219 36.1619 40.2023 35.334 40.2293 34.4188C40.2931 32.2319 40.189 30.08 39.1356 28.088C39.1311 28.0795 39.1264 28.0709 39.1217 28.0622C39.0737 27.9741 39.0217 27.8787 39.0975 27.773C39.1234 27.797 39.1504 27.8202 39.1775 27.8433C39.2358 27.8932 39.2941 27.943 39.3407 28.002C40.6182 29.6242 41.4678 31.4173 41.478 33.5253C41.4816 34.2979 41.4838 35.0806 41.3699 35.8416C41.2658 36.5406 41.4709 36.9525 42.1247 37.178C42.2585 37.2243 42.3831 37.2979 42.5073 37.3714C42.5508 37.3971 42.5943 37.4228 42.6381 37.4473C49.8447 41.4863 52.7475 50.4771 49.0624 57.8343ZM23.5369 28.1962C23.5547 28.3688 23.5725 28.5413 23.5907 28.7139C23.6678 30.6899 23.0135 32.3608 21.5101 33.6618C19.1841 35.6741 16.4581 36.5743 13.4003 36.4994C12.669 36.4812 12.5848 36.3373 12.9928 35.7946C15.6519 32.2558 18.6534 29.0563 22.2995 26.5044C22.4572 26.3936 22.6202 26.2886 22.7876 26.1934C23.0516 26.0437 23.2213 26.1301 23.2926 26.4198C23.3022 26.4588 23.3125 26.4977 23.3228 26.5368C23.352 26.6475 23.3814 26.7585 23.3945 26.8711C23.4454 27.3124 23.4911 27.7543 23.5369 28.1962ZM23.8698 78.8569C26.8465 79.7428 29.9007 80.2128 32.9784 80.557C33.1059 80.5753 33.2335 80.5934 33.3611 80.6115C33.5399 80.6369 33.7187 80.6623 33.8976 80.6881C33.9349 80.6934 33.9814 80.7028 34.0278 80.7121C34.1245 80.7315 34.2202 80.7507 34.228 80.7324C34.2872 80.5932 34.19 80.5421 34.0977 80.4936C34.0643 80.476 34.0315 80.4588 34.007 80.4378C33.4697 79.9778 32.9294 79.5214 32.389 79.0649C31.7768 78.5476 31.1645 78.0304 30.5568 77.5081C26.0686 73.6521 23.3249 68.8216 22.3517 62.9682C21.647 58.7317 22.1781 54.7247 24.3269 50.9728C24.6297 50.4436 24.9462 49.9223 25.2626 49.4009C25.3878 49.1947 25.5129 48.9885 25.6372 48.7819C25.6991 48.6787 25.7631 48.5766 25.8271 48.4745C25.9068 48.3472 25.9865 48.2199 26.0624 48.0904C26.1196 47.9934 26.1732 47.8747 26.0399 47.7985C25.9809 47.7648 25.8857 47.7538 25.8224 47.7764C25.4578 47.9057 25.0963 48.0435 24.7371 48.1865C22.0045 49.2762 19.2226 50.2149 16.3762 50.9648C11.5386 52.2388 6.61679 53.0113 1.64319 53.4888C0.851617 53.5646 0.844086 53.5823 1.05139 54.322C2.91848 60.9917 6.19154 66.8092 11.3915 71.4771C15.0623 74.7723 19.0955 77.4363 23.8698 78.8569Z" fill="#FEFEFE"/>
</svg>
