<svg width="65" height="69" viewBox="0 0 65 69" fill="none" xmlns="http://www.w3.org/2000/svg">
<path d="M38.6816 50.5211C35.8577 50.5211 33.0343 50.5211 30.2104 50.5211C29.9468 50.5211 29.6831 50.5215 29.4199 50.5171C29.0901 50.5118 28.8832 50.4241 29.1183 50.0542C29.2385 49.8651 29.3564 49.6742 29.4758 49.4841C31.8237 45.7473 34.1814 42.0158 36.5111 38.2674C36.8931 37.653 37.3083 37.3221 38.0903 37.2419C42.7312 36.7662 47.3645 36.2191 52 35.6929C52.2606 35.6632 52.5274 35.6318 52.774 35.5512C53.3425 35.3651 53.6607 34.9669 53.6495 34.5133C53.6383 34.065 53.3076 33.6469 52.7584 33.4759C52.4018 33.3647 52.0251 33.3044 51.6528 33.2597C48.4026 32.8681 45.1511 32.4854 41.9 32.1C40.239 31.9029 40.5853 31.8196 41.2194 30.815C44.3342 25.8808 47.4539 20.9493 50.5691 16.0156C50.7885 15.6678 50.9986 15.3139 51.1983 14.9551C51.3637 14.6579 51.4678 14.3354 51.4508 13.9912C51.4088 13.139 50.7135 12.7345 49.9493 13.1239C49.4725 13.3666 49.1194 13.7609 48.757 14.1414C44.7015 18.4036 40.6456 22.6649 36.5884 26.9258C35.4385 28.1333 35.5815 28.1018 34.9836 26.6046C33.807 23.6567 32.6379 20.7057 31.4604 17.7582C31.3223 17.4122 31.1833 17.0605 30.9916 16.7429C30.6618 16.1954 30.1273 15.935 29.6912 16.0546C29.2434 16.1773 28.9221 16.6765 28.9207 17.2988C28.9203 17.5584 28.965 17.8193 29.0025 18.0776C29.6509 22.544 30.2931 27.0113 30.9594 31.475C31.0832 32.3038 30.9277 32.9301 30.2971 33.5733C27.2539 36.6776 24.2718 39.8404 21.2683 42.9827C21.1128 43.1453 20.9635 43.3141 20.8004 43.4687C20.3786 43.8682 20.3231 43.8673 20.1716 43.3066C19.3543 40.2807 18.5472 37.2521 17.7469 34.2218C17.0229 31.4803 16.3124 28.7353 15.5956 25.992C15.4628 25.4839 15.323 24.982 14.8953 24.6188C14.2487 24.0691 13.4916 24.2467 13.1663 25.033C13.0023 25.429 13.0497 25.8387 13.0894 26.2485C13.3683 29.1074 13.6471 31.9658 13.9229 34.8251C14.2589 38.3152 14.5928 41.8058 14.9248 45.2964C15.0271 46.3732 15.0973 47.4531 15.2273 48.5264C15.2863 49.0137 15.1791 49.3725 14.8314 49.7322C12.6698 51.9687 10.5319 54.2278 8.37794 56.471C7.82246 57.0495 7.79476 57.0486 7.2652 56.4453C4.14238 52.8879 1.98795 48.8148 0.922583 44.2266C-1.14962 35.3018 0.227232 26.9577 5.47588 19.3427C7.82738 15.9305 10.91 13.3024 14.4703 11.154C20.7785 7.34722 27.6096 4.91269 34.7557 3.22987C40.2175 1.94351 45.7253 0.930448 51.319 0.439202C54.356 0.172538 57.4046 0.0569236 60.456 0.104764C61.2903 0.118053 61.3037 0.122038 61.52 0.93089C62.3298 3.9612 63.0041 7.02164 63.5006 10.118C64.6804 17.4725 65.0893 24.8779 64.8859 32.3153C64.7612 36.8716 64.3778 41.404 63.1118 45.8168C61.9588 49.835 60.1972 53.5917 57.7867 56.9986C53.8716 62.5312 48.463 66.0625 41.9277 67.8162C34.5819 69.7874 27.3924 69.1969 20.4442 66.0567C20.2047 65.9486 19.9692 65.8321 19.7364 65.7103C19.5304 65.6027 19.5094 65.4255 19.6077 65.2395C19.7122 65.0419 19.8378 64.855 19.9567 64.6649C21.4466 62.2889 22.9535 59.923 24.4157 57.5301C24.7813 56.9317 25.2156 56.6628 25.9235 56.5569C31.2057 55.768 36.4807 54.9304 41.7579 54.1064C43.7278 53.799 45.6972 53.4916 47.6653 53.174C48.0348 53.1142 48.4116 53.0433 48.7583 52.9096C49.3125 52.6952 49.6512 52.1858 49.6105 51.7109C49.5627 51.1559 49.1896 50.8648 48.7145 50.6637C48.2842 50.4817 47.8297 50.5105 47.3788 50.5105C44.4799 50.51 41.5809 50.51 38.682 50.51C38.6816 50.5118 38.6816 50.5167 38.6816 50.5211Z" fill="#FEFEFE"/>
</svg>
