<svg width="74" height="65" viewBox="0 0 74 65" fill="none" xmlns="http://www.w3.org/2000/svg">
<path fill-rule="evenodd" clip-rule="evenodd" d="M0.0073089 32.5151C-0.0024363 32.4982 -0.0024363 32.4774 0.0073089 32.4606L18.5599 0.762989C18.5697 0.746599 18.5874 0.736855 18.606 0.736855H55.3778C55.3972 0.736855 55.4145 0.746598 55.4247 0.763874L73.7736 32.4615C73.7829 32.4779 73.7829 32.4991 73.7736 32.5155L55.4247 64.1781C55.415 64.1945 55.3972 64.2051 55.3778 64.2051H18.606C18.5865 64.2051 18.5693 64.1954 18.5599 64.179L0.0073089 32.5151ZM53.9829 32.4699C53.9829 41.9068 46.3329 49.5568 36.896 49.5568C27.4591 49.5568 19.8091 41.9068 19.8091 32.4699C19.8091 23.033 27.4591 15.383 36.896 15.383C46.3329 15.383 53.9829 23.033 53.9829 32.4699Z" fill="white"/>
</svg>
