<svg width="80" height="81" viewBox="0 0 80 81" fill="none" xmlns="http://www.w3.org/2000/svg">
<path fill-rule="evenodd" clip-rule="evenodd" d="M15.9242 63.7724L28.6545 60.0812L39.6498 80.1855C39.6644 80.2117 39.7016 80.2117 39.7158 80.1855L50.711 60.0812L63.4413 63.7724C63.4697 63.7808 63.4963 63.7542 63.4878 63.7254L59.7962 51.2472L79.3459 40.5549C79.3721 40.5407 79.3721 40.5031 79.3459 40.4889L59.6349 29.7085L63.4878 16.6854C63.4963 16.657 63.4697 16.6304 63.4413 16.6384L50.4125 20.4165L39.7158 0.858285C39.7016 0.83215 39.6639 0.83215 39.6498 0.858285L28.9531 20.4165L15.9242 16.6384C15.8959 16.63 15.8693 16.6566 15.8777 16.6854L19.7306 29.7085L0.0196011 40.4889C-0.00653371 40.5031 -0.00653371 40.5407 0.0196011 40.5549L19.5694 51.2472L15.8777 63.7254C15.8693 63.7542 15.8959 63.7808 15.9242 63.7724ZM25.8027 40.6594L34.8215 45.5918L39.7539 54.6106C39.768 54.6367 39.8057 54.6367 39.8199 54.6106L44.7523 45.5918L53.771 40.6594C53.7971 40.6453 53.7971 40.6076 53.771 40.5934L44.7523 35.661L39.8199 26.6423C39.8057 26.6162 39.768 26.6162 39.7539 26.6423L34.8215 35.661L25.8027 40.5934C25.777 40.6076 25.777 40.6448 25.8027 40.6594Z" fill="white"/>
</svg>
