<svg width="75" height="59" viewBox="0 0 75 59" fill="none" xmlns="http://www.w3.org/2000/svg">
<path fill-rule="evenodd" clip-rule="evenodd" d="M57.8165 27.9452C57.8121 27.9394 57.8103 27.9319 57.8116 27.9248L62.5788 0.126198C62.581 0.113352 62.5921 0.10405 62.6049 0.10405H64.1137C64.1252 0.10405 64.1354 0.11158 64.1389 0.122654L74.8794 34.1294C74.883 34.14 74.879 34.1516 74.8706 34.1586L66.9513 40.3415C66.9393 40.3508 66.9225 40.3482 66.9136 40.3362L57.8165 27.9452ZM0 46.3738C0 46.3853 0.00753054 46.3955 0.0181617 46.3991L16.3427 51.7368C16.3507 51.7394 16.3595 51.7381 16.3662 51.7332L52.8549 26.5423C52.8611 26.5379 52.865 26.5317 52.8659 26.5242L56.7791 0.268833C56.7817 0.252886 56.7689 0.238268 56.7529 0.238268H24.433C24.425 0.238268 24.4175 0.241812 24.4126 0.248013L0.00620146 29.6905C0.00221479 29.6954 0 29.7011 0 29.7077V46.3738ZM23.1453 53.0967L40.9794 58.9385C40.9874 58.9411 40.9963 58.9398 41.0034 58.9349L62.2359 43.7045C62.2479 43.6961 62.2506 43.6802 62.2426 43.6682L54.283 31.8238C54.2746 31.8114 54.2582 31.8083 54.2458 31.8167L23.1453 53.0967Z" fill="white"/>
</svg>
