<svg width="70" height="70" viewBox="0 0 70 70" fill="none" xmlns="http://www.w3.org/2000/svg">
<path d="M64.2315 65.684C63.8399 65.4687 63.4519 65.2472 63.0634 65.0257C62.9062 64.9362 62.7471 64.8499 62.5908 64.7595C61.5197 64.1385 60.6258 63.3084 59.8506 62.3547C58.7769 61.0342 58.5935 59.5968 59.3607 58.057C59.583 57.6114 59.9414 57.2756 60.259 56.9053C68.5424 47.2478 71.1014 36.2597 67.3606 24.0915C62.6541 8.78087 47.3998 -1.48835 30.4542 0.432782C23.171 1.25847 16.6732 4.07129 11.3093 9.08209C1.7103 18.0494 -1.78955 29.0531 0.853166 41.9619C4.11294 54.3428 11.6508 61.8351 23.4877 66.6966C26.7594 67.8191 30.642 68.7293 34.0511 69.2808C36.6539 69.7016 38.9635 69.8124 41.5877 69.831C42.8975 69.8403 44.284 69.8274 45.8268 69.8177C48.6392 69.8465 49.74 69.7313 51.6828 69.5546C55.9242 69.1683 59.9556 67.948 63.8506 66.2536C63.9786 66.1978 64.1053 66.1393 64.2328 66.0835C64.5425 65.9484 64.4884 65.8253 64.2315 65.684ZM29.885 30.9423C29.2848 34.7647 26.1083 37.4916 22.2417 37.4809C18.981 37.4721 16.1257 35.457 15.0302 32.3922C13.9414 29.345 14.8809 25.9267 17.3739 23.8749C17.5622 23.7198 17.7553 23.5674 17.9613 23.4385C18.4021 23.1626 18.484 23.1922 18.5442 23.7061C18.6674 24.7559 18.9318 25.7601 19.4262 26.6979C21.2423 30.1423 25.3406 31.679 29.011 30.215C30.1193 29.7729 30.0236 30.0582 29.885 30.9423ZM39.1301 31.2874C39.0831 31.0487 39.0446 30.8059 39.0304 30.5632C38.9937 29.9417 39.0716 29.8708 39.651 30.1184C41.3516 30.8453 43.0924 30.968 44.866 30.4772C47.8263 29.6582 50.0057 27.0722 50.3614 24.017C50.3907 23.7654 50.2436 23.3889 50.5953 23.2968C50.8739 23.2237 51.095 23.4992 51.3151 23.6622C53.9136 25.5869 55.0112 29.0673 54.0021 32.1649C52.9532 35.3835 50.0385 37.4893 46.6436 37.4809C42.9617 37.4716 39.8388 34.8989 39.1301 31.2874Z" fill="#FEFEFE"/>
</svg>
