<svg width="82" height="67" viewBox="0 0 82 67" fill="none" xmlns="http://www.w3.org/2000/svg">
<path fill-rule="evenodd" clip-rule="evenodd" d="M61.947 0.0903625L42.5366 10.2174V30.0471L42.6841 29.9745L42.9598 29.8385L61.9416 20.476L61.9412 20.4755L61.947 20.4729V0.0903625ZM38.8212 33.5328L19.4108 24.1716L0 33.535L19.4108 42.8727L38.8212 33.5328ZM42.5366 33.5328L61.947 24.1716L81.3578 33.535L61.947 42.8727L42.5366 33.5328ZM42.5366 56.8269L61.947 66.9539V46.5714L61.9412 46.5687L61.9416 46.5683L42.9598 37.2058L42.6841 37.0698L42.5366 36.9972V56.8269ZM19.4108 0.0903625L38.8212 10.2174V30.0471L38.6738 29.9745L38.398 29.8385L19.4162 20.476L19.4167 20.4755L19.4108 20.4729V0.0903625ZM38.8212 56.8269L19.4108 66.9539V46.5714L19.4167 46.5687L19.4162 46.5683L38.398 37.2058L38.6738 37.0698L38.8212 36.9972V56.8269Z" fill="white"/>
</svg>
