<svg width="71" height="50" viewBox="0 0 71 50" fill="none" xmlns="http://www.w3.org/2000/svg">
<path fill-rule="evenodd" clip-rule="evenodd" d="M35.5564 49.6008C37.7736 49.6022 39.9908 49.6036 42.2079 49.6036C50.6561 49.6036 59.1043 49.6036 67.5539 49.6027C67.6475 49.6027 67.7413 49.6039 67.8352 49.6052C68.0955 49.6086 68.356 49.6121 68.6139 49.589C69.557 49.5048 70.0867 48.9835 70.1873 48.036C70.216 47.7661 70.2136 47.4924 70.2112 47.2192C70.2105 47.1382 70.2098 47.0573 70.2099 46.9764C70.2249 32.2714 70.2391 17.5663 70.2529 2.86121C70.2529 2.64905 70.2586 2.43689 70.2493 2.22516C70.1957 0.99811 69.6274 0.411196 68.396 0.400575C66.0633 0.38019 63.7298 0.381532 61.3971 0.39966C60.1413 0.409426 59.6049 0.963564 59.5633 2.21271C59.5526 2.53034 59.5588 2.84882 59.5588 3.16687L59.5587 7.23895C59.5586 10.4062 59.5586 13.5735 59.557 16.7406C59.557 16.811 59.5575 16.8815 59.558 16.9522C59.5602 17.2713 59.5624 17.5918 59.5203 17.9052C59.4073 18.7446 58.8815 19.2349 58.0417 19.2921C57.5841 19.3231 57.1216 19.32 56.6636 19.2956C55.7564 19.2473 55.2302 18.7667 55.1124 17.8657C55.0724 17.5595 55.0751 17.2471 55.0778 16.9358C55.0785 16.8575 55.0791 16.7792 55.0791 16.7012C55.0784 15.0604 55.0787 13.4197 55.079 11.7791C55.0796 8.57703 55.0802 5.37506 55.0729 2.17285C55.0698 0.818727 54.4864 0.220705 53.1452 0.20746C50.9184 0.185732 48.6912 0.187502 46.4644 0.206545C45.1111 0.21808 44.53 0.81122 44.4945 2.13965C44.4891 2.34253 44.4901 2.54566 44.4911 2.74872C44.4915 2.82849 44.4919 2.9082 44.4919 2.98792L44.4916 7.6095C44.4915 10.6643 44.4914 13.7191 44.4905 16.7738C44.4904 16.8429 44.4908 16.9121 44.4912 16.9814C44.4928 17.2661 44.4944 17.5515 44.4631 17.8329C44.363 18.7277 43.8358 19.2363 42.9415 19.2934C42.4839 19.3231 42.0215 19.3222 41.5639 19.2925C40.7165 19.2371 40.1832 18.7561 40.0636 17.9251C40.0185 17.6142 40.0207 17.296 40.0228 16.9789C40.0233 16.9062 40.0238 16.8335 40.0237 16.761C40.0226 15.0883 40.0228 13.4155 40.023 11.7427C40.0234 8.60822 40.0238 5.47363 40.0157 2.33899C40.0122 0.959596 39.4532 0.411623 38.0879 0.396608C37.1905 0.386598 36.2928 0.388735 35.395 0.390871C35.0202 0.391725 34.6453 0.39258 34.2705 0.39258C33.9658 0.39258 33.661 0.391298 33.3563 0.390016C32.6359 0.386965 31.9154 0.383913 31.1954 0.39789C29.9547 0.421816 29.3793 0.993715 29.3354 2.2074C29.3283 2.41358 29.3294 2.61994 29.3306 2.82617C29.331 2.90271 29.3314 2.97919 29.3314 3.05567C29.3312 4.87604 29.3312 6.69654 29.3312 8.51697C29.3312 10.3375 29.3312 12.158 29.331 13.9783C29.3309 14.3361 29.3325 14.6939 29.3342 15.0518C29.3382 15.9314 29.3423 16.8111 29.3199 17.6899C29.2938 18.7153 28.7489 19.2443 27.7439 19.2992C27.4617 19.3147 27.1782 19.308 26.8956 19.304C25.4993 19.285 25.0085 18.7973 24.9793 17.3692C24.9671 16.7675 24.9695 16.1654 24.972 15.5633C24.973 15.317 24.974 15.0706 24.974 14.8243C24.974 13.6749 24.971 12.5255 24.968 11.3761C24.9605 8.53095 24.9531 5.68591 24.9913 2.84131C25.0139 1.15491 24.6001 0.270326 22.4752 0.38019C21.554 0.427675 20.6299 0.415712 19.7059 0.403749C19.2858 0.398317 18.8658 0.392885 18.446 0.393068C18.2048 0.39319 17.9635 0.391542 17.7222 0.389894C17.1501 0.385927 16.5782 0.38196 16.0071 0.401918C14.9085 0.440431 14.3362 1.02735 14.2769 2.12726C14.2654 2.33856 14.2715 2.55115 14.2715 2.76331C14.2753 6.2992 14.2799 9.83502 14.2845 13.3709C14.2993 24.6462 14.3141 35.9214 14.2986 47.1966C14.2959 49.1718 15.0676 49.628 16.757 49.6205C23.0235 49.593 29.29 49.5969 35.5564 49.6008ZM10.7518 46.9853C10.7535 42.0764 10.7531 37.1674 10.7531 32.2585C10.7682 32.2585 10.7832 32.2585 10.7983 32.2589L10.7983 28.5241C10.7984 24.7894 10.7985 21.0549 10.7978 17.32C10.7978 17.243 10.7987 17.1658 10.7996 17.0886C10.8022 16.8474 10.8049 16.6058 10.7815 16.3672C10.6902 15.4356 10.1573 14.8793 9.2293 14.7853C8.94821 14.7568 8.66407 14.7595 8.3797 14.7621C8.16887 14.764 7.95793 14.766 7.74803 14.7553C6.90773 14.7123 6.38414 15.0759 5.99832 15.8374C4.17908 19.4276 2.3235 22.9997 0.467044 26.5713C0.148547 27.1835 -0.00559737 27.8085 0.000155193 28.4991C0.0209834 31.0067 0.0271785 33.5143 0.0147731 36.0215C0.0112331 36.7161 0.197283 37.3264 0.517092 37.9368C0.877322 38.6238 1.23909 39.3102 1.60086 39.9965C3.01766 42.6844 4.43457 45.3724 5.75957 48.1046C6.36775 49.3596 7.17395 49.8578 8.48778 49.7139C8.5997 49.7016 8.71292 49.699 8.8261 49.6965C8.9606 49.6934 9.09502 49.6904 9.22708 49.671C10.1298 49.5376 10.6167 49.049 10.7185 48.1494C10.755 47.8262 10.7536 47.498 10.7523 47.1711C10.752 47.1091 10.7518 47.0472 10.7518 46.9853Z" fill="#FEFEFE"/>
</svg>
