<svg width="80" height="47" viewBox="0 0 80 47" fill="none" xmlns="http://www.w3.org/2000/svg">
<path fill-rule="evenodd" clip-rule="evenodd" d="M21.3404 46.0119C21.3212 46.0119 21.3078 45.9933 21.3141 45.9751L39.3181 0.422947C39.3221 0.411873 39.3324 0.404785 39.3445 0.404785H62.1387C62.1503 0.404785 62.161 0.412315 62.165 0.42339L79.9014 45.9756C79.9076 45.9933 79.8942 46.0119 79.875 46.0119H21.3404ZM0.027669 46.2094C0.00845298 46.2094 -0.00495463 46.1904 0.00174862 46.1722L13.8551 10.6939C13.8592 10.6833 13.8694 10.6762 13.8811 10.6762H25.53C25.5492 10.6762 25.5626 10.6953 25.5559 10.713L12.1454 46.1913C12.1413 46.2019 12.1311 46.2094 12.1194 46.2094H0.027669Z" fill="white"/>
</svg>
