<svg width="74" height="71" viewBox="0 0 74 71" fill="none" xmlns="http://www.w3.org/2000/svg">
<path d="M37.047 0.596252C45.814 0.734014 54.2333 3.15747 61.5639 8.78089C66.3545 12.4562 69.9837 17.0373 71.8932 22.7812C74.7819 31.4712 73.3349 39.5549 68.0817 47.0082C66.3545 49.4587 64.2604 51.5858 61.8821 53.4188C61.1854 53.9556 61.0308 54.4513 61.2605 55.3084C62.1364 58.5709 61.9067 61.7855 60.5325 64.8911C59.7827 66.5858 58.7169 68.0476 57.1706 69.1276C54.6475 70.8901 51.6069 70.891 49.0932 69.1192C47.3209 67.8696 46.2104 66.134 45.4221 64.1633C45.2884 63.8293 45.2795 63.2326 44.9515 63.2348C44.4934 63.2379 44.5632 63.8554 44.4233 64.2032C43.7127 65.9688 42.6706 67.4766 41.1016 68.5978C38.1557 70.7028 34.275 70.4844 31.5772 68.0711C30.3272 66.9531 29.4268 65.6073 28.8539 64.0415C28.7649 63.7978 28.6863 63.5489 28.5746 63.3154C28.4914 63.1414 28.3364 63.1254 28.2497 63.3079C28.1071 63.6091 27.9954 63.9245 27.877 64.2364C27.2866 65.7872 26.4228 67.1608 25.2158 68.3174C22.2382 71.1696 18.1278 71.1621 15.1613 68.2811C12.9993 66.181 11.9706 63.5511 11.6828 60.6249C11.4965 58.7326 11.555 56.8309 12.1569 55.001C12.3701 54.3521 12.1869 53.9902 11.6725 53.5964C8.52781 51.1871 5.90773 48.303 3.86994 44.9147C1.15333 40.3987 -0.196702 35.5062 0.0231647 30.2504C0.290401 23.858 2.68704 18.2678 6.8654 13.428C11.7695 7.74745 18.012 4.17318 25.2104 2.1515C28.9428 1.10167 32.7636 0.647193 37.047 0.596252ZM36.6386 47.8799C39.5067 47.8919 42.3176 47.5065 45.0588 46.6689C49.0012 45.4645 52.486 43.5168 55.2468 40.4191C59.9319 35.1629 60.091 28.2748 55.6512 22.8126C54.2248 21.0576 52.4931 19.6477 50.5442 18.4995C47.0014 16.4123 43.155 15.3137 39.0558 14.9837C33.8558 14.5647 28.8959 15.397 24.2277 17.7194C20.8082 19.4209 17.9481 21.7748 16.1083 25.1705C13.9968 29.0673 13.8846 33.0451 15.8263 37.0406C17.3922 40.2627 19.9135 42.5989 22.9867 44.377C27.2004 46.8151 31.7881 47.8605 36.6386 47.8799Z" fill="#FEFEFE"/>
</svg>
