<svg width="73" height="66" viewBox="0 0 73 66" fill="none" xmlns="http://www.w3.org/2000/svg">
<path d="M63.4514 31.8471C63.4757 32.252 63.2281 32.5563 63.0611 32.8885C60.2395 38.5013 53.0112 43.3965 46.0646 43.3819C44.5949 43.3788 43.1269 43.3739 41.6593 43.2884C41.5198 43.2804 41.278 43.3216 41.2523 43.3969C41.1743 43.6277 41.3998 43.7132 41.5681 43.7641C43.1907 44.2554 44.8332 44.6634 46.512 44.9172C48.9576 45.287 51.3939 45.2414 53.8165 44.7449C56.3126 44.2332 58.4432 42.9921 60.4131 41.4231C60.7086 41.1879 60.9238 40.7865 61.3898 40.8087C61.2215 41.1418 61.0625 41.4798 60.8835 41.8067C58.4419 46.2638 54.5274 48.4848 49.6309 49.2135C48.2861 49.4137 46.9306 49.4509 45.5738 49.4646C45.2726 49.4677 44.9709 49.4704 44.6706 49.4908C44.5714 49.4974 44.4132 49.5147 44.4513 49.6728C44.4735 49.7645 44.5599 49.873 44.6454 49.9111C44.885 50.0179 45.1371 50.0998 45.3887 50.1769C45.9286 50.3417 46.4744 50.4874 47.0121 50.658C47.5875 50.8405 47.6163 50.8777 47.3563 51.4549C46.4066 53.5629 45.1787 55.4991 43.6686 57.2502C39.7847 61.7542 34.9174 64.5985 29.0601 65.5987C15.3517 67.9398 2.91819 58.9042 0.448229 45.8726C-2.05009 32.6918 6.12835 20.1861 19.1719 17.0813C21.085 16.626 23.0296 16.4382 24.9968 16.4435C28.8391 16.4541 32.684 16.5281 36.5241 16.4284C43.3634 16.2508 50.1022 15.3276 56.6647 13.3188C58.6133 12.7221 60.4924 11.9509 62.2709 10.9445C65.2445 9.26215 67.6201 6.9264 69.621 4.1911C70.4653 3.03674 71.2462 1.83542 72.0599 0.658027C72.1392 0.543299 72.2119 0.363898 72.3953 0.432557C72.5671 0.496787 72.5268 0.680174 72.5219 0.819708C72.4342 3.26974 72.2066 5.71003 71.7273 8.11266C70.7917 12.8045 69.1262 17.2519 66.6877 21.3551C62.9437 27.654 57.4802 31.8068 50.3995 33.7704C48.5771 34.2759 46.6874 34.4313 44.8106 34.5204C42.0274 34.6528 39.2363 34.69 36.4762 34.1594C36.3292 34.131 36.1777 34.1208 36.028 34.1111C35.923 34.1044 35.8007 34.1102 35.7883 34.2426C35.783 34.2985 35.8499 34.3831 35.9066 34.4172C36.0342 34.4938 36.1741 34.5509 36.3119 34.609C40.6777 36.4473 45.1911 37.4776 49.96 37.0652C52.9762 36.8043 55.9192 36.2076 58.7321 35.0537C60.3533 34.3884 61.8186 33.4874 63.0213 32.1913C63.1453 32.0579 63.3136 31.9658 63.4611 31.8542L63.4514 31.8471Z" fill="#FEFEFE"/>
</svg>
