<svg width="69" height="69" viewBox="0 0 69 69" fill="none" xmlns="http://www.w3.org/2000/svg">
<path fill-rule="evenodd" clip-rule="evenodd" d="M25.3765 62.1082C26.9446 62.3172 28.5517 62.4262 30.1875 62.4262C47.6049 62.4262 61.7239 50.1145 61.7239 34.9284C61.7239 19.7414 47.6044 7.43051 30.1875 7.43051C29.019 7.43051 27.8646 7.48633 26.7302 7.59397C35.3698 13.3011 41.0827 23.1881 41.0827 34.4283C41.0818 46.2456 34.7687 56.5662 25.3765 62.1082ZM34.269 68.7912C53.1955 68.7912 68.538 53.4487 68.538 34.5222C68.538 15.5957 53.1955 0.253174 34.269 0.253174C15.3425 0.253174 0 15.5957 0 34.5222C0 53.4487 15.3425 68.7912 34.269 68.7912Z" fill="white"/>
</svg>
