<svg width="60" height="80" viewBox="0 0 60 80" fill="none" xmlns="http://www.w3.org/2000/svg">
<path d="M54.0402 67.1919C54.0282 67.5857 53.7629 67.8537 53.5604 68.1522C50.2971 72.9632 45.8914 76.1956 40.2715 77.7353C36.4691 78.7771 32.6047 79.5032 28.6513 79.2188C18.6664 78.5003 10.3945 74.5375 4.6577 66.0747C1.84932 61.9321 0.466828 57.2637 0.0991686 52.2893C-0.400937 45.5292 1.03116 39.1018 3.47721 32.8525C3.72792 32.2124 3.99104 31.5767 4.2648 30.9464C4.33656 30.7812 4.36756 30.4955 4.63777 30.5712C4.79591 30.6155 4.75914 30.8405 4.76003 30.9942C4.76269 31.3987 4.75427 31.8035 4.75604 32.2079C4.7742 37.042 5.20122 41.8225 6.65237 46.4656C7.13564 48.0116 7.70928 49.5238 8.40385 50.9883C8.48491 51.1597 8.56287 51.4042 8.8096 51.3249C8.8787 51.3028 8.9075 51.0295 8.88889 50.8793C8.64438 48.8687 8.55888 46.847 8.5137 44.8258C8.3374 36.9578 10.3405 29.8487 15.9001 24.0233C17.435 22.4154 19.039 20.8743 20.8556 19.5671C22.3014 18.5266 23.6617 17.3793 24.8887 16.0779C27.2139 13.6119 28.3633 10.6675 28.517 7.30587C28.6118 5.23014 28.3412 3.18941 27.9492 1.15931C27.9031 0.921435 27.8553 0.683563 27.8234 0.443477C27.8136 0.370388 27.8482 0.228197 27.8748 0.225096C27.9802 0.212693 28.0958 0.227755 28.1968 0.263192C28.2677 0.288441 28.3226 0.361973 28.3819 0.4169C31.418 3.24567 34.1635 6.30743 36.0776 10.0336C37.7825 13.3532 38.5063 16.873 38.2228 20.5979C38.1325 21.7859 38.144 21.8001 36.9626 22.154C33.4627 23.2025 31.003 26.6324 31.166 30.4773C31.3175 34.0511 33.7276 37.1957 37.1912 38.1352C41.5583 39.3202 46.0123 36.6456 47.199 32.1366C47.6983 30.2412 47.5162 28.3675 47.0688 26.4977C46.8145 25.4342 46.469 24.3989 46.0894 23.3739C46.011 23.1626 45.7824 22.8845 46.0247 22.7179C46.2263 22.5793 46.4681 22.8247 46.6706 22.9451C51.3921 25.7495 55.1418 29.4904 57.2397 34.6146C60.903 43.5615 59.9497 52.0828 54.185 59.8635C50.4322 64.9283 45.2278 67.412 38.8749 67.3296C38.109 67.3199 37.344 67.2052 36.5794 67.1299C36.3832 67.1104 36.1325 67.1219 36.0496 66.9079C35.9588 66.6718 36.2016 66.5748 36.3478 66.4543C36.5976 66.2484 36.8674 66.0659 37.1052 65.8475C40.4952 62.7357 41.7816 58.8814 40.7628 54.4235C39.7621 50.0452 36.994 47.1478 32.6224 45.958C26.9397 44.4112 20.9503 47.9478 19.3065 53.7918C18.1291 57.9769 19.0957 61.7545 21.842 65.0276C25.2015 69.0315 29.5819 71.1599 34.7801 71.6428C39.8135 72.1105 44.5971 71.0589 49.2504 69.2667C50.8703 68.643 52.4349 67.8754 54.0247 67.1733L54.0402 67.1919Z" fill="#FEFEFE"/>
</svg>
