<svg width="63" height="70" viewBox="0 0 63 70" fill="none" xmlns="http://www.w3.org/2000/svg">
<path fill-rule="evenodd" clip-rule="evenodd" d="M15.2395 15.1305C19.4986 19.7564 24.7082 22.2862 31.1751 22.2818C37.5019 22.3362 42.7816 19.7923 47.0987 15.1018C47.6865 14.463 47.6799 14.44 46.8826 13.9682C45.2529 13.0034 43.5439 12.2043 41.7628 11.5611C41.6186 11.5092 41.4732 11.4606 41.3278 11.412C41.1508 11.3528 40.9738 11.2937 40.7989 11.2285C40.0977 10.9676 40.0941 10.9516 40.5433 10.2947C40.6346 10.1613 40.7321 10.032 40.8295 9.90272C40.8686 9.85081 40.9077 9.79892 40.9464 9.74677C41.3335 9.22481 41.7207 8.70294 42.1079 8.18108C43.1617 6.76091 44.2155 5.34075 45.2666 3.9187C45.2833 3.89617 45.3 3.87362 45.3167 3.85106C45.5024 3.60037 45.6902 3.3468 45.8292 3.07086C46.2925 2.15127 46.06 1.13954 45.2733 0.527368C44.4489 -0.114043 43.3663 -0.0626588 42.5894 0.680191C42.3741 0.886043 42.1934 1.13028 42.0147 1.37195C41.9911 1.40382 41.9675 1.43565 41.944 1.46734C41.5112 2.04916 41.0778 2.63047 40.6444 3.21178C39.158 5.20531 37.6717 7.1988 36.2138 9.213C35.7823 9.80922 35.3442 10.0365 34.6049 9.9306C32.3126 9.60236 30.0079 9.60768 27.7151 9.92838C26.9882 10.0298 26.5372 9.83757 26.0996 9.23027C24.6768 7.25607 23.2217 5.30507 21.7666 3.3541C21.3467 2.79107 20.9268 2.22804 20.5076 1.66446C20.4826 1.63084 20.4577 1.59712 20.4327 1.56338C20.2101 1.26277 19.9858 0.959744 19.7214 0.699681C18.9732 -0.0365245 17.9619 -0.120688 17.1367 0.448077C16.2937 1.02925 16.0009 2.11274 16.4669 3.06112C16.6081 3.34888 16.804 3.61127 16.9982 3.87142C17.0306 3.91482 17.063 3.95815 17.095 4.00153C18.2044 5.50312 19.3166 7.00233 20.4289 8.50161C20.7574 8.9444 21.0859 9.38719 21.4144 9.83005C21.4564 9.88673 21.4995 9.94276 21.5425 9.9988C21.6378 10.1227 21.733 10.2467 21.8175 10.3775C22.1577 10.9051 22.1404 10.9738 21.5885 11.1926C21.3792 11.2756 21.1655 11.3474 20.9518 11.4191C20.8073 11.4677 20.6627 11.5162 20.5196 11.5682C18.7402 12.2154 17.0281 13.0079 15.4025 13.9802C14.6397 14.4369 14.633 14.4723 15.2395 15.1305ZM28.9762 42.5761C28.8083 48.9694 27.9109 54.5366 25.6327 59.8238C24.198 63.1535 22.1479 66.0922 19.8277 68.8532C19.243 69.549 19.2195 69.5491 18.4013 69.1734C11.3126 65.9199 6.10201 60.7615 2.81566 53.6914C0.638053 49.0062 -0.271352 44.0503 0.0697301 38.9048C0.587997 31.0834 3.64755 24.377 9.16288 18.7983C9.21604 18.7447 9.26964 18.6911 9.32501 18.6393C9.96332 18.0377 9.98015 18.0231 10.5564 18.6672C12.2787 20.5932 14.1896 22.3017 16.3398 23.7382C18.9444 25.4782 21.7674 26.7335 24.8256 27.4006C25.642 27.5787 26.0358 27.9481 26.2834 28.7211C27.3115 31.9273 28.3246 35.1361 28.6759 38.5031C28.7961 39.6539 28.8663 40.8098 28.9206 41.7037L28.9206 41.7038L28.9207 41.7043C28.9408 42.0354 28.9587 42.3306 28.9762 42.5761ZM33.381 42.8043C33.1981 38.0668 34.5084 33.1517 36.1682 28.2972C36.344 27.7829 36.6683 27.5792 37.1387 27.4884C38.1801 27.2868 39.1914 26.9763 40.1907 26.6259C44.4945 25.1159 48.1034 22.5653 51.2054 19.2577C51.2931 19.1639 51.3796 19.0691 51.466 18.9742L51.4663 18.9739L51.4666 18.9736C51.5327 18.901 51.5989 18.8284 51.6657 18.7562C52.3447 18.0218 52.354 18.0125 53.0499 18.7044C56.8528 22.4873 59.5544 26.9391 61.0468 32.0934C65.2447 46.5956 58.5383 61.8863 45.039 68.6446C44.6677 68.8306 44.2864 68.9976 43.905 69.1633C43.0544 69.5323 43.05 69.5272 42.4321 68.8164L42.4029 68.7828C37.486 63.1319 34.7294 56.5424 33.797 49.14C33.5507 47.1852 33.3837 45.2313 33.381 42.8043Z" fill="#FEFEFE"/>
</svg>
