<svg width="52" height="78" viewBox="0 0 52 78" fill="none" xmlns="http://www.w3.org/2000/svg">
<path d="M26.0149 77.3891C13.0653 77.2403 3.08135 68.4931 0.596768 57.1005C-0.526588 51.9493 -0.0379977 46.915 1.84327 41.9777C4.72342 34.4194 8.52006 27.3364 12.8155 20.5095C16.5718 14.5397 20.395 8.61194 24.1855 2.66338C24.6218 1.97856 25.0395 1.28133 25.4616 0.587208C25.6809 0.226636 25.8922 0.23018 26.1093 0.585437C26.1668 0.679788 26.2258 0.77414 26.2829 0.868491C30.3404 7.56566 34.7608 14.0329 38.8772 20.6924C42.6101 26.7309 46.0758 32.9089 48.7332 39.5104C49.7817 42.1146 50.8408 44.7126 51.2457 47.521C52.3628 55.2635 50.501 62.2043 45.4743 68.1936C40.8037 73.7581 34.7466 76.734 27.5015 77.2863C26.9128 77.3311 26.3237 77.3679 26.0149 77.3891ZM24.3604 69.2616C27.012 69.2745 29.5179 68.707 31.7987 67.3759C36.2606 64.7718 38.8236 60.9521 39.038 55.7012C39.054 55.3118 39.2077 54.6474 38.9034 54.5814C38.4143 54.4755 38.3811 55.1554 38.1796 55.5032C35.6095 59.9421 31.7686 62.4112 26.6554 62.6136C18.7025 62.9281 12.4252 56.4303 12.6024 48.8383C12.6095 48.5429 12.6246 48.2474 12.6184 47.9529C12.6161 47.855 12.5865 47.7128 12.5191 47.6702C12.3517 47.5644 12.2578 47.7243 12.1714 47.835C12.058 47.9803 11.9508 48.1318 11.856 48.29C9.16678 52.7834 8.91518 57.3982 11.5282 61.9567C14.3388 66.8608 18.7911 69.1013 24.3604 69.2616Z" fill="#FEFEFE"/>
</svg>
